<?xml version="1.0" encoding="utf-8"?>
<!-- Generator: Adobe Illustrator 19.2.1, SVG Export Plug-In . SVG Version: 6.00 Build 0)  -->
<svg version="1.1" id="Layer_1" xmlns="http://www.w3.org/2000/svg" xmlns:xlink="http://www.w3.org/1999/xlink" x="0px" y="0px"
	 viewBox="0 0 1653.7 344.9" style="enable-background:new 0 0 1653.7 344.9;" xml:space="preserve">
<style type="text/css">
	.st0{fill:#29D6D4;}
	.st1{fill-rule:evenodd;clip-rule:evenodd;fill:#EEF4F4;}
	.st2{fill:#231F20;}
</style>
<g>
	<g>
		<path class="st0" d="M229.3,0h-12c-23.3,23.3-49.8,41.9-79.7,55.8c-19.9,8-35.9,14-47.8,17.9c-25.9,8-52.5,12-79.7,12H0v8h10
			c22.6,0,43.9-2,63.8-6v207.3H0v10h73.8h155.5H303v-10h-73.8V0z M575.4,24.2c-5.5-6.1-12-11-19.7-14.7C548.1,5.8,539.6,4,530.3,4
			c-18.9,0-36.8,2.7-53.6,8.2c-16.8,5.5-32.9,11.5-48.3,17.9c-15.5,6.5-30.7,12.4-45.9,17.7c-15.1,5.3-30.3,8-45.6,8
			c-11,0-20-4.4-27.2-13.2C302.6,33.8,299,20.9,299,4h-10v153.5h61.8c12.3,0,24.2,1.6,35.6,4.7c11.5,3.2,21.4,7.6,29.9,13.5
			c8.5,5.8,15.3,13,20.4,21.4c5.1,8.5,7.7,17.9,7.7,28.2c0,9.6-1.9,18.4-5.7,26.4c-3.8,8-8.8,14.9-15,20.7
			c-6.2,5.8-13,10.4-20.7,13.7c-7.6,3.3-15.1,5-22.4,5c-6,0-10.9-0.1-14.7-0.2c-3.8-0.2-6.9-0.4-9.2-0.7c-2.7-0.3-4.7-0.7-6-1
			c8,0,15.7-1.3,23.2-4c7.5-2.7,14-6.7,19.7-12.2c5.6-5.5,10.2-12.1,13.7-19.9c3.5-7.8,5.2-17,5.2-27.7c0-10-1.9-18.8-5.7-26.4
			c-3.8-7.6-8.7-14.1-14.7-19.4c-6-5.3-12.6-9.3-19.9-12c-7.3-2.7-14.5-4-21.4-4c-7,0-14.1,1.4-21.4,4.2c-7.3,2.8-14,7-19.9,12.5
			c-6,5.5-10.9,12-14.7,19.7c-3.8,7.6-5.7,16.1-5.7,25.4c0,11,2.2,21.5,6.7,31.6c4.5,10.1,12.5,19,23.9,26.7
			c11.5,7.6,27,13.8,46.6,18.4c19.6,4.6,44.4,7,74.3,7c29.9,0,54.6-1.7,74-5.2c19.4-3.5,34.9-8.7,46.4-15.7
			c11.5-7,19.5-15.7,24.2-26.2c4.6-10.5,7-22.7,7-36.6c0-17.9-4.1-32.1-12.2-42.4c-8.1-10.3-19.4-18.1-33.6-23.4
			c-14.3-5.3-31-8.6-50.1-10c-19.1-1.3-39.6-2-61.6-2H299v-39.9c0,3,1.5,6.3,4.5,10c3,3.7,9.7,7.1,20.2,10.5
			c10.5,3.3,25.5,6.1,45.1,8.2c19.6,2.2,46.2,3.2,79.7,3.2c30.2,0,54.6,1.2,73,3.5c18.4,2.3,32.7,5.2,42.9,8.5
			c10.1,3.3,17,6.7,20.7,10c3.7,3.3,6,6,7,8V69.8c0-8.3-1.4-16.4-4.2-24.4C585.1,37.4,580.9,30.3,575.4,24.2z M692.3,220.8
			c-4.7-4.6-10.1-8.4-16.4-11.2c-6.3-2.8-13-4.2-19.9-4.2c-7,0-13.6,1.4-19.9,4.2c-6.3,2.8-11.8,6.6-16.4,11.2
			c-4.7,4.7-8.4,10.1-11.2,16.4c-2.8,6.3-4.2,13-4.2,19.9c0,7,1.4,13.6,4.2,19.9c2.8,6.3,6.6,11.8,11.2,16.4
			c4.6,4.7,10.1,8.4,16.4,11.2c6.3,2.8,13,4.2,19.9,4.2c6,0,11.5-0.9,16.7-2.7c5.1-1.8,10.2-4.2,15.2-7.2c-7,11-16.5,20-28.7,27.2
			c-12.1,7.1-25.2,10.7-39.1,10.7v8c12,0,23.2-2.2,33.6-6.7c10.5-4.5,19.6-10.6,27.4-18.2c7.8-7.6,14-16.7,18.7-27.2
			c4.6-10.5,7.3-21.7,8-33.6v-2c0-7-1.4-13.6-4.2-19.9C700.7,230.9,697,225.5,692.3,220.8z M982.4,48.3
			c-12-13.6-27.7-24.4-47.3-32.4c-19.6-8-43.9-12-72.8-12c-28.6,0-52.5,4-71.8,12c-19.3,8-34.8,18.8-46.6,32.4
			C732.1,62,723.6,78,718.5,96.4c-5.2,18.4-7.7,38.1-7.7,59.1c0,21.6,2,41.7,6,60.3c4,18.6,11.5,34.8,22.7,48.6
			c11.1,13.8,26.5,24.7,46.1,32.6c19.6,8,45.2,12,76.8,12c31.9,0,57.8-4,77.8-12c19.9-8,35.6-18.9,46.9-32.6
			c11.3-13.8,18.9-30,22.9-48.6c4-18.6,6-38.7,6-60.3c0-20.9-2.6-40.6-7.7-59.1C1002.9,78,994.3,62,982.4,48.3z M868.2,299h-10V14
			h10V299z M1301.4,48.3c-12-13.6-27.7-24.4-47.3-32.4c-19.6-8-43.9-12-72.8-12c-28.6,0-52.5,4-71.8,12c-19.3,8-34.8,18.8-46.6,32.4
			c-11.8,13.6-20.3,29.7-25.4,48.1c-5.2,18.4-7.7,38.1-7.7,59.1c0,21.6,2,41.7,6,60.3c4,18.6,11.5,34.8,22.7,48.6
			c11.1,13.8,26.5,24.7,46.1,32.6c19.6,8,45.2,12,76.8,12c31.9,0,57.8-4,77.8-12c19.9-8,35.6-18.9,46.9-32.6
			c11.3-13.8,18.9-30,22.9-48.6c4-18.6,6-38.7,6-60.3c0-20.9-2.6-40.6-7.7-59.1C1321.9,78,1313.3,62,1301.4,48.3z M1187.2,299h-10
			V14h10V299z M1646,96.4c-5.2-18.4-13.7-34.5-25.7-48.1c-12-13.6-27.7-24.4-47.3-32.4c-19.6-8-43.9-12-72.8-12
			c-28.6,0-52.5,4-71.8,12c-19.3,8-34.8,18.8-46.6,32.4C1370,62,1361.6,78,1356.4,96.4c-5.2,18.4-7.7,38.1-7.7,59.1
			c0,21.6,2,41.7,6,60.3c4,18.6,11.5,34.8,22.7,48.6c11.1,13.8,26.5,24.7,46.1,32.6c19.6,8,45.2,12,76.8,12c31.9,0,57.8-4,77.8-12
			c19.9-8,35.6-18.9,46.9-32.6c11.3-13.8,18.9-30,22.9-48.6c4-18.6,6-38.7,6-60.3C1653.7,134.6,1651.2,114.9,1646,96.4z M1506.2,299
			h-10V14h10V299z"/>
	</g>
</g>
<path class="st1" d="M1204.5,244.1l409-17.5v86l-409,17.5V244.1z"/>
<g>
	<g>
		<path class="st2" d="M1311,296.6c-0.3,0.2-0.5,0.4-0.7,0.5c-0.2,0.1-0.4,0.2-0.5,0.2c-0.2,0-0.3,0.1-0.4,0.1
			c-0.2,0-0.4-0.1-0.4-0.4c-0.1-0.3-0.1-0.7-0.1-1.3c0.1-1.2,0.2-2.5,0.4-3.8c0.2-1.3,0.4-2.5,0.6-3.8c0.1-0.7,0.2-1.4,0.4-2.2
			c0.1-0.8,0.2-1.5,0.4-2.2c0.1-0.7,0.2-1.5,0.3-2.1c0.1-0.7,0.1-1.3,0.1-1.9c0-1.3-0.1-2.4-0.4-3.3c-0.3-0.9-0.6-1.6-1.1-2.2
			c-0.5-0.6-1.1-1-1.7-1.2c-0.7-0.2-1.4-0.3-2.2-0.3c-0.9,0-1.7,0.2-2.6,0.6c-0.9,0.3-1.7,0.8-2.5,1.4c-0.8,0.6-1.6,1.2-2.3,2
			c-0.7,0.7-1.4,1.5-2,2.4c-0.1-1.1-0.3-2-0.5-2.7c-0.3-0.7-0.6-1.3-1.1-1.8c-0.5-0.4-1-0.7-1.6-0.9c-0.6-0.2-1.3-0.3-2-0.2
			c-0.9,0-1.8,0.2-2.6,0.6c-0.9,0.3-1.7,0.8-2.5,1.3c-0.8,0.5-1.6,1.2-2.4,1.9c-0.8,0.7-1.4,1.5-2.1,2.3l0.5-5l-1.1-0.5l-5.9,1.5
			l-0.4,2.1l2.3,1.3l-3.1,22.9l4.7-0.2l2.4-18.1c0.6-0.8,1.2-1.6,1.9-2.4c0.7-0.7,1.4-1.4,2.1-1.9c0.7-0.6,1.4-1,2.1-1.3
			c0.7-0.3,1.3-0.5,1.9-0.5c0.4,0,0.8,0,1.1,0c0.3,0,0.6,0.2,0.8,0.4c0.2,0.2,0.4,0.6,0.5,1.1c0.1,0.5,0.2,1.1,0.2,2
			c0,0.7,0,1.5-0.1,2.4c-0.1,0.8-0.1,1.7-0.2,2.5c-0.1,0.8-0.2,1.7-0.3,2.5c-0.1,0.8-0.2,1.6-0.3,2.3l-1.3,10.5l4.8-0.2l1.5-12
			c0.1-1,0.3-2,0.4-3c0.1-1.1,0.2-2.1,0.3-3.1c0.6-0.8,1.2-1.6,1.8-2.3c0.6-0.7,1.3-1.3,2-1.9c0.7-0.5,1.3-1,2-1.3
			c0.6-0.3,1.3-0.5,1.8-0.5c0.3,0,0.6,0,0.9,0.1c0.3,0.1,0.5,0.2,0.8,0.4c0.2,0.2,0.4,0.6,0.5,1.1c0.1,0.5,0.2,1.1,0.2,2
			c0,0.7,0,1.5-0.1,2.4c-0.1,0.8-0.2,1.7-0.3,2.5c-0.1,0.8-0.2,1.6-0.4,2.4c-0.1,0.8-0.2,1.5-0.4,2.2c-0.2,1.4-0.4,2.8-0.6,4.2
			c-0.2,1.4-0.3,2.7-0.4,3.9c0,1.1,0.2,1.9,0.7,2.3c0.5,0.5,1.2,0.7,2.2,0.6c0.7,0,1.4-0.2,2.1-0.5c0.6-0.3,1.2-0.7,1.7-1.1
			c0.5-0.4,0.9-0.8,1.3-1.2c0.3-0.4,0.6-0.7,0.7-0.9l-0.7-1.2C1311.6,296.1,1311.3,296.4,1311,296.6z M1348.2,295.5
			c-0.3,0.2-0.6,0.2-0.8,0.2c-0.2,0-0.4-0.1-0.6-0.4c-0.2-0.3-0.2-0.7-0.1-1.4l3.1-23.2l-2.9,0.9c-0.7-0.2-1.4-0.4-2.3-0.5
			c-0.8-0.1-1.7-0.2-2.5-0.1c-1.6,0.1-3.1,0.4-4.5,1c-1.4,0.6-2.7,1.4-3.8,2.3c-1.1,1-2.1,2.1-3,3.3c-0.9,1.2-1.6,2.5-2.2,3.9
			c-0.6,1.3-1.1,2.7-1.4,4.1c-0.3,1.4-0.5,2.7-0.5,3.9c0,1.5,0.1,2.8,0.4,4.1c0.3,1.2,0.7,2.3,1.3,3.2c0.6,0.9,1.4,1.6,2.3,2
			c0.9,0.5,2.1,0.7,3.4,0.6c0.8,0,1.5-0.2,2.3-0.5c0.7-0.3,1.4-0.7,2.1-1.2c0.7-0.5,1.3-1,1.9-1.6c0.6-0.6,1.1-1.2,1.6-1.8l-0.2,1.6
			c-0.1,1.2,0.2,2,0.8,2.4c0.6,0.5,1.3,0.7,2.3,0.6c0.7,0,1.3-0.2,1.9-0.5c0.6-0.3,1.2-0.6,1.6-0.9c0.5-0.4,0.9-0.7,1.2-1
			c0.3-0.3,0.5-0.6,0.6-0.7l-0.7-1.2C1348.9,295.1,1348.5,295.4,1348.2,295.5z M1342.5,290.4c-0.4,0.6-0.9,1.2-1.4,1.8
			c-0.6,0.7-1.2,1.3-1.8,1.8c-0.6,0.6-1.3,1-2,1.4c-0.7,0.4-1.4,0.6-2.1,0.6c-1.2,0.1-2-0.6-2.6-1.9c-0.5-1.3-0.8-3.1-0.8-5.4
			c0-1,0.1-2,0.2-3.1c0.2-1.1,0.4-2.2,0.8-3.3c0.3-1.1,0.8-2.1,1.3-3.1c0.5-1,1.1-1.9,1.9-2.6c0.7-0.8,1.5-1.4,2.4-1.9
			c0.9-0.5,1.9-0.7,3.1-0.8c0.6,0,1.1,0,1.6,0.1c0.5,0.1,1,0.3,1.4,0.5L1342.5,290.4z M1381.5,269.5c-1.1,0-2.2,0.3-3.1,0.8
			c-0.9,0.5-1.8,1.1-2.5,1.7c-0.7,0.7-1.3,1.3-1.8,2c-0.5,0.7-0.9,1.3-1.1,1.8l0.5-5.4l-1.1-0.5l-5.8,1.5l-0.4,2.1l2.4,1.3
			l-2.9,22.9l4.7-0.2l2.1-17.1c0.5-1,1-1.9,1.6-2.6c0.6-0.7,1.2-1.3,1.8-1.8c0.6-0.5,1.3-0.8,1.9-1c0.6-0.2,1.2-0.3,1.8-0.3
			c1.2-0.1,2,0,2.4,0.3l1.1-5.1c-0.1-0.1-0.3-0.2-0.6-0.2C1382,269.5,1381.7,269.5,1381.5,269.5z M1410.5,268.5
			c-0.5-0.1-0.9-0.1-1.4-0.2c-0.5,0-0.9,0-1.4,0c-1.5,0.1-2.9,0.4-4.2,1c-1.3,0.6-2.5,1.3-3.5,2.2s-2,2-2.7,3.2
			c-0.8,1.2-1.4,2.4-2,3.8c-0.5,1.3-0.9,2.6-1.2,4c-0.3,1.3-0.4,2.6-0.4,3.8c0,1.7,0.2,3.2,0.6,4.5c0.4,1.3,0.9,2.4,1.7,3.3
			c0.7,0.9,1.6,1.5,2.7,2c1.1,0.4,2.2,0.6,3.6,0.6c1.1,0,2.2-0.2,3.1-0.6c0.9-0.3,1.8-0.7,2.5-1.2c0.7-0.5,1.4-0.9,1.9-1.4
			c0.5-0.5,0.9-0.9,1.2-1.3l-0.9-1.9c-0.6,0.5-1.2,0.9-1.7,1.3c-0.5,0.4-1,0.7-1.5,0.9c-0.5,0.2-1,0.4-1.5,0.5
			c-0.5,0.1-1,0.2-1.6,0.2c-0.7,0-1.4-0.1-2-0.4c-0.6-0.3-1.1-0.7-1.5-1.4c-0.4-0.6-0.7-1.5-1-2.5c-0.2-1-0.3-2.2-0.3-3.6
			c0-2.1,0.2-4,0.6-5.7c0.4-1.7,0.9-3.1,1.6-4.2c0.7-1.1,1.5-2,2.5-2.6c1-0.6,2-1,3.2-1c0.8,0,1.5,0.1,2.3,0.5
			c0.7,0.3,1.5,0.8,2.1,1.3c0.1,0.1,0.2,0.1,0.3,0.2c0.1,0.1,0.2,0.1,0.3,0.2l1.4-4.8c-0.3-0.2-0.7-0.3-1.1-0.4
			C1411.4,268.7,1410.9,268.6,1410.5,268.5z M1447.1,291.3c-0.4,0.2-0.7,0.3-0.9,0.3c-0.2,0-0.4-0.1-0.4-0.4
			c-0.1-0.3-0.1-0.7-0.1-1.3c0.1-1.2,0.2-2.5,0.5-3.8c0.2-1.3,0.4-2.6,0.6-3.8c0.1-0.7,0.3-1.4,0.4-2.1c0.1-0.8,0.3-1.5,0.4-2.3
			c0.1-0.7,0.2-1.5,0.3-2.2c0.1-0.7,0.1-1.4,0.1-1.9c0-1.3-0.1-2.5-0.4-3.4c-0.3-0.9-0.6-1.6-1.1-2.2c-0.5-0.5-1-0.9-1.7-1.1
			c-0.7-0.2-1.4-0.3-2.2-0.3c-0.9,0-1.8,0.2-2.7,0.6c-0.9,0.3-1.8,0.8-2.6,1.4c-0.8,0.6-1.6,1.2-2.3,2c-0.7,0.8-1.4,1.6-2,2.4
			l2.2-16.9l-1.2-0.6l-6.4,1.3l-0.4,2l2.8,0.9l-4.6,35.3l4.7-0.2l2.4-18c0.6-0.9,1.2-1.7,1.9-2.4c0.7-0.7,1.4-1.4,2.1-1.9
			c0.7-0.6,1.4-1,2.1-1.3c0.7-0.3,1.4-0.5,2-0.5c0.4,0,0.7,0,1,0.1c0.3,0,0.6,0.2,0.9,0.4c0.2,0.2,0.4,0.6,0.6,1.1
			c0.1,0.5,0.2,1.1,0.2,2c0,0.7,0,1.5-0.1,2.4c-0.1,0.8-0.2,1.7-0.3,2.5c-0.1,0.8-0.3,1.7-0.4,2.5c-0.2,0.8-0.3,1.6-0.5,2.3
			c-0.1,0.7-0.2,1.4-0.4,2.1c-0.1,0.7-0.2,1.4-0.4,2.1c-0.1,0.7-0.2,1.3-0.3,2c-0.1,0.6-0.1,1.2-0.2,1.8c-0.1,1.2,0.2,2,0.7,2.4
			c0.5,0.5,1.3,0.7,2.3,0.6c0.7,0,1.4-0.2,2.1-0.5c0.7-0.3,1.3-0.6,1.8-1c0.5-0.4,1-0.7,1.3-1.1c0.3-0.4,0.6-0.6,0.7-0.8l-0.7-1.2
			C1448,290.8,1447.5,291.1,1447.1,291.3z M1482.7,266.9c-0.6-0.5-1.3-0.9-2.1-1.2c-0.8-0.3-1.8-0.4-3-0.3c-1.3,0.1-2.6,0.3-3.8,0.8
			c-1.2,0.5-2.3,1.2-3.3,2c-1,0.8-2,1.8-2.8,2.9c-0.8,1.1-1.6,2.3-2.2,3.6c-0.6,1.3-1.1,2.7-1.4,4.1c-0.3,1.5-0.5,2.9-0.6,4.4
			c0,1.3,0.1,2.6,0.5,3.9c0.4,1.3,0.9,2.4,1.7,3.3c0.8,1,1.8,1.7,3,2.3c1.2,0.6,2.7,0.8,4.4,0.7c1.2,0,2.3-0.3,3.3-0.6
			c1-0.4,2-0.8,2.8-1.3c0.8-0.5,1.6-1.1,2.2-1.7c0.6-0.6,1.1-1.1,1.4-1.6l-1.1-1.9c-1.3,1.3-2.7,2.3-4.1,2.9c-1.4,0.6-2.7,0.9-3.9,1
			c-1.1,0-1.9-0.2-2.6-0.7c-0.7-0.5-1.2-1.2-1.6-2c-0.4-0.8-0.7-1.7-0.8-2.6c-0.1-0.9-0.1-1.8-0.1-2.6c0.8-0.1,1.7-0.2,2.7-0.5
			c1.1-0.2,2.2-0.6,3.4-1c1.2-0.4,2.3-1,3.5-1.6c1.2-0.6,2.2-1.4,3.1-2.2c0.9-0.8,1.6-1.8,2.2-2.8c0.6-1,0.8-2.1,0.8-3.4
			c0-0.8-0.1-1.6-0.4-2.3C1483.7,268,1483.3,267.4,1482.7,266.9z M1478.9,273.9c-0.3,0.7-0.8,1.3-1.4,1.9c-0.6,0.6-1.2,1.1-2,1.6
			c-0.8,0.5-1.5,0.9-2.3,1.2c-0.8,0.3-1.6,0.6-2.3,0.8c-0.8,0.2-1.5,0.3-2.1,0.4c0.1-0.7,0.2-1.4,0.4-2.2c0.2-0.8,0.4-1.7,0.7-2.5
			c0.3-0.8,0.7-1.7,1.1-2.5c0.4-0.8,0.9-1.5,1.4-2.2c0.5-0.6,1.2-1.1,1.8-1.5c0.7-0.4,1.4-0.6,2.2-0.7c0.9,0,1.6,0.2,2.1,0.8
			c0.5,0.5,0.8,1.4,0.8,2.7C1479.5,272.4,1479.3,273.2,1478.9,273.9z M1515.3,263.8c-1.1,0-2.2,0.3-3.1,0.8
			c-0.9,0.5-1.8,1.1-2.5,1.7c-0.7,0.7-1.3,1.3-1.8,2c-0.5,0.7-0.9,1.3-1.1,1.8l0.5-5.4l-1.1-0.5l-5.8,1.5l-0.4,2.1l2.4,1.3
			l-2.9,22.9l4.7-0.2l2.1-17.1c0.5-1,1-1.9,1.6-2.6c0.6-0.7,1.2-1.3,1.8-1.8c0.6-0.5,1.3-0.8,1.9-1c0.6-0.2,1.2-0.3,1.8-0.3
			c1.2-0.1,2,0,2.4,0.3l1.1-5.1c-0.1-0.1-0.3-0.2-0.6-0.2C1515.8,263.8,1515.6,263.8,1515.3,263.8z M1543.8,263.1
			c-0.4-0.1-0.9-0.2-1.5-0.2c-0.6-0.1-1.1-0.1-1.8-0.1c-0.6,0-1.3,0-1.9,0c-1.2,0.1-2.4,0.3-3.5,0.7c-1.1,0.4-2.1,1-2.9,1.7
			c-0.8,0.7-1.5,1.5-2,2.5c-0.5,1-0.8,2-0.8,3.2c0,1,0.2,1.9,0.5,2.7c0.4,0.8,0.8,1.5,1.3,2.2c0.5,0.7,1.1,1.2,1.6,1.7
			c0.6,0.5,1.1,0.9,1.5,1.2c0.5,0.4,1,0.7,1.5,1.1c0.5,0.4,0.9,0.8,1.3,1.2c0.4,0.4,0.7,0.9,0.9,1.5c0.2,0.5,0.4,1.1,0.4,1.8
			c0,0.8-0.2,1.4-0.4,1.9c-0.3,0.5-0.7,0.8-1.1,1.1c-0.5,0.2-1,0.4-1.5,0.5c-0.5,0.1-1.1,0.1-1.6,0.2c-0.7,0-1.4,0-2-0.1
			c-0.7-0.1-1.3-0.2-1.8-0.4c-0.6-0.2-1-0.3-1.5-0.5c-0.4-0.2-0.8-0.4-1-0.5l-0.9,3.7c0.2,0.2,0.6,0.3,1,0.5
			c0.5,0.1,1.1,0.3,1.7,0.4c0.6,0.1,1.3,0.2,2.1,0.2c0.7,0,1.5,0.1,2.2,0c1.2-0.1,2.4-0.3,3.6-0.6c1.1-0.4,2.2-0.9,3-1.6
			c0.9-0.7,1.6-1.5,2.1-2.5c0.5-1,0.8-2.1,0.8-3.3c0-1-0.2-1.9-0.5-2.7c-0.3-0.8-0.7-1.5-1.2-2.1c-0.5-0.6-1.1-1.2-1.7-1.7
			c-0.6-0.5-1.2-1-1.9-1.4c-0.5-0.4-1-0.8-1.5-1.2c-0.5-0.4-0.9-0.9-1.3-1.4c-0.4-0.5-0.6-1-0.8-1.5c-0.2-0.5-0.2-1.1-0.2-1.7
			c0.1-0.6,0.3-1.2,0.5-1.6c0.3-0.4,0.6-0.8,1-1c0.4-0.3,0.9-0.4,1.4-0.6c0.5-0.1,1-0.2,1.5-0.2c0.7,0,1.4,0,2,0.1
			c0.6,0.1,1.2,0.3,1.6,0.4c0.5,0.2,0.8,0.3,1.1,0.5c0.3,0.2,0.5,0.3,0.5,0.4l0.9-4C1544.6,263.3,1544.3,263.2,1543.8,263.1z"/>
	</g>
</g>
</svg>
