<?xml version="1.0" encoding="utf-8"?>
<!-- Generator: Adobe Illustrator 19.2.1, SVG Export Plug-In . SVG Version: 6.00 Build 0)  -->
<svg version="1.1" id="Layer_1" xmlns="http://www.w3.org/2000/svg" xmlns:xlink="http://www.w3.org/1999/xlink" x="0px" y="0px"
	 viewBox="0 0 1373.4 664.5" style="enable-background:new 0 0 1373.4 664.5;" xml:space="preserve">
<style type="text/css">
	.st0{fill:#29D6D4;}
	.st1{fill-rule:evenodd;clip-rule:evenodd;fill:#EEF4F4;}
	.st2{fill:#231F20;}
</style>
<g>
	<g>
		<path class="st0" d="M621.3,46.4c-11.9-13.3-26.1-24-42.7-31.9c-16.6-7.9-35-11.9-55.2-11.9c-41.1,0-79.9,5.9-116.3,17.8
			c-36.4,11.9-71.4,24.9-104.9,38.9c-33.5,14.1-66.7,26.9-99.5,38.4c-32.8,11.5-65.8,17.3-98.9,17.3c-23.8,0-43.4-9.5-58.9-28.7
			c-15.5-19.1-23.3-47-23.3-83.8H0v333.1h134.1c26.7,0,52.4,3.4,77.3,10.3c24.9,6.9,46.5,16.6,64.9,29.2
			c18.4,12.6,33.2,28.1,44.3,46.5c11.2,18.4,16.8,38.8,16.8,61.1c0,20.9-4.2,40-12.4,57.3c-8.3,17.3-19.1,32.3-32.4,44.9
			c-13.3,12.6-28.3,22.5-44.9,29.7c-16.6,7.2-32.8,10.8-48.7,10.8c-13,0-23.6-0.2-31.9-0.5c-8.3-0.4-15-0.9-20-1.6
			c-5.8-0.7-10.1-1.4-13-2.2c17.3,0,34.1-2.9,50.3-8.7c16.2-5.8,30.4-14.6,42.7-26.5c12.3-11.9,22.2-26.3,29.7-43.3
			c7.6-16.9,11.4-36.9,11.4-60c0-21.6-4.2-40.7-12.4-57.3c-8.3-16.6-18.9-30.6-31.9-42.2c-13-11.5-27.4-20.2-43.3-26
			c-15.9-5.8-31.4-8.7-46.5-8.7c-15.1,0-30.7,3.1-46.5,9.2c-15.9,6.1-30.3,15.1-43.3,27c-13,11.9-23.6,26.1-31.9,42.7
			C4.1,444.3,0,462.6,0,482.8c0,23.8,4.9,46.7,14.6,68.7c9.7,22,27,41.3,51.9,57.9c24.9,16.6,58.6,29.9,101.1,40
			c42.5,10.1,96.2,15.1,161.1,15.1s118.4-3.8,160.6-11.4c42.2-7.6,75.7-18.9,100.6-34.1s42.3-34.1,52.4-56.8
			c10.1-22.7,15.1-49.2,15.1-79.5c0-38.9-8.8-69.6-26.5-91.9c-17.7-22.3-42-39.3-73-50.8c-31-11.5-67.2-18.7-108.7-21.6
			c-41.5-2.9-86-4.3-133.6-4.3H21.6v-86.5c0,6.5,3.2,13.7,9.7,21.6c6.5,7.9,21.1,15.5,43.8,22.7c22.7,7.2,55.3,13.2,97.9,17.8
			c42.5,4.7,100.2,7,173,7c65.6,0,118.4,2.5,158.4,7.6c40,5.1,71,11.2,93,18.4c22,7.2,36.9,14.4,44.9,21.6c7.9,7.2,13,13,15.1,17.3
			V145.4c0-18-3.1-35.7-9.2-53C642.2,75.1,633.2,59.8,621.3,46.4z M1356.6,203.2c-11.2-40-29.7-74.8-55.7-104.4
			c-26-29.6-60.2-53-102.7-70.3c-42.5-17.3-95.2-26-157.9-26c-62,0-113.9,8.7-155.7,26c-41.8,17.3-75.5,40.7-101.1,70.3
			c-25.6,29.6-44,64.4-55.2,104.4c-11.2,40-16.8,82.7-16.8,128.2c0,46.9,4.3,90.5,13,130.9c8.7,40.4,25,75.5,49.2,105.5
			c24.1,29.9,57.5,53.5,100,70.8c42.5,17.3,98,26,166.5,26c69.2,0,125.4-8.7,168.7-26s77.1-40.9,101.7-70.8
			c24.5-29.9,41.1-65.1,49.7-105.5c8.7-40.4,13-84,13-130.9C1373.4,286,1367.8,243.3,1356.6,203.2z M1053.3,642.9h-21.6V24.2h21.6
			V642.9z"/>
	</g>
</g>
<path class="st1" d="M991.7,407.8l-609.2,45.8v154L988.9,562L991.7,407.8z"/>
<g>
	<g>
		<path class="st2" d="M497.6,503.8c-0.9,0.1-1.6,0.4-2.2,0.9c-0.6,0.5-0.9,1.4-0.9,2.6c0,0.4,0.1,0.7,0.2,1.1
			c0.1,0.3,0.2,0.7,0.4,1c0.1,0.3,0.2,0.6,0.4,0.9c0.1,0.3,0.2,0.7,0.2,1c0,1.8-0.2,3.5-0.6,5.1s-0.9,3.2-1.4,4.7
			c-0.6,1.5-1.2,3.1-1.9,4.6c-0.7,1.5-1.4,3.1-2.1,4.8l-4.9,10.1l-0.6-8.5c0,0,0-0.4-0.1-1.1c-0.1-0.7-0.2-1.5-0.3-2.6
			c-0.1-1.1-0.3-2.3-0.4-3.6c-0.2-1.3-0.3-2.7-0.5-4.1c-0.2-1.4-0.3-2.8-0.5-4.1c-0.2-1.3-0.3-2.6-0.4-3.6c-0.1-1.1-0.2-1.9-0.3-2.6
			c-0.1-0.7-0.1-1-0.1-1.1c-0.1-0.6-0.2-1.2-0.4-1.7c-0.2-0.5-0.4-1-0.7-1.3c-0.3-0.4-0.7-0.6-1.2-0.8c-0.5-0.2-1.1-0.2-1.9-0.2
			c-0.8,0.1-1.6,0.3-2.4,0.7c-0.8,0.4-1.5,0.8-2.1,1.3c-0.6,0.5-1.1,1-1.6,1.4c-0.4,0.5-0.7,0.8-0.8,1l0.9,1.8
			c0.4-0.3,0.7-0.6,1-0.8c0.3-0.2,0.5-0.3,0.7-0.4c0.2-0.1,0.3-0.1,0.5-0.2c0.1,0,0.3-0.1,0.4-0.1c0.3,0,0.6,0.1,0.8,0.3
			c0.2,0.2,0.4,0.7,0.5,1.3l5.4,31.5l3-0.2c-0.9,1.9-1.8,3.5-2.8,4.8c-1,1.3-2,2.4-3,3.2c-1,0.8-2,1.4-2.9,1.8
			c-0.9,0.4-1.7,0.6-2.4,0.6c-0.8,0.1-1.4,0-2,0c-0.6-0.1-1.1-0.2-1.6-0.3c-0.4-0.1-0.8-0.2-1.1-0.3c-0.3-0.1-0.5-0.2-0.7-0.3
			l-1.5,5.1c0.3,0.1,0.7,0.2,1.2,0.2c0.5,0.1,1,0.1,1.5,0.2c0.5,0.1,1,0.1,1.5,0.1c0.5,0,0.9,0,1.3,0c1.5-0.1,2.8-0.4,4-0.8
			c1.2-0.4,2.3-0.9,3.2-1.5c0.9-0.6,1.7-1.2,2.4-1.9c0.7-0.7,1.2-1.3,1.6-2c0.6-0.8,1.4-1.8,2.2-3c0.8-1.2,1.7-2.7,2.7-4.4
			c1-1.7,2.1-3.7,3.3-6.1c1.2-2.3,2.5-5,4-8.1c0.8-1.5,1.6-3.2,2.4-4.8c0.9-1.7,1.7-3.4,2.4-5.2c0.7-1.8,1.3-3.6,1.8-5.4
			c0.5-1.8,0.7-3.6,0.7-5.3c0-1.9-0.3-3.4-1-4.4C500.1,504.1,499.1,503.7,497.6,503.8z M543.8,502.7c-0.7-0.7-1.7-1.1-2.8-1.5
			c-1.1-0.3-2.4-0.4-4-0.3c-1.7,0.1-3.4,0.5-5,1.2c-1.6,0.7-3,1.6-4.4,2.8c-1.4,1.1-2.6,2.5-3.7,4c-1.1,1.5-2.1,3.1-2.9,4.9
			c-0.8,1.8-1.4,3.6-1.9,5.5c-0.4,1.9-0.7,3.9-0.8,5.9c0,1.8,0.2,3.5,0.6,5.2c0.5,1.7,1.2,3.1,2.2,4.3c1,1.2,2.3,2.2,3.9,2.9
			c1.6,0.7,3.5,0.9,5.8,0.8c1.5-0.1,3-0.4,4.4-1c1.4-0.5,2.6-1.2,3.7-1.9c1.1-0.7,2.1-1.5,2.9-2.3c0.8-0.8,1.5-1.5,1.9-2.2l-1.5-2.5
			c-1.8,1.8-3.6,3.1-5.4,3.9c-1.8,0.8-3.6,1.3-5.2,1.4c-1.4,0.1-2.6-0.2-3.5-0.8c-0.9-0.7-1.6-1.5-2.1-2.6c-0.5-1-0.9-2.2-1-3.4
			c-0.2-1.2-0.2-2.3-0.1-3.4c1-0.1,2.2-0.4,3.6-0.7c1.4-0.4,2.9-0.9,4.4-1.5c1.5-0.6,3.1-1.4,4.6-2.2c1.5-0.9,2.9-1.9,4.1-3
			c1.2-1.1,2.2-2.4,2.9-3.8c0.7-1.4,1.1-2.9,1.1-4.5c0-1.1-0.2-2.1-0.5-3C545.1,504.1,544.6,503.3,543.8,502.7z M538.8,512.1
			c-0.5,0.9-1.1,1.8-1.8,2.6c-0.8,0.8-1.6,1.5-2.6,2.2c-1,0.6-2,1.2-3,1.7c-1,0.5-2.1,0.9-3.1,1.2c-1,0.3-2,0.5-2.8,0.6
			c0.1-0.9,0.3-1.9,0.5-3c0.2-1.1,0.6-2.2,1-3.3c0.4-1.1,0.9-2.2,1.4-3.3c0.6-1.1,1.2-2.1,1.9-2.9c0.7-0.9,1.5-1.6,2.4-2.1
			c0.9-0.6,1.9-0.9,2.9-0.9c1.1-0.1,2.1,0.2,2.8,0.9c0.7,0.7,1.1,1.8,1.1,3.5C539.5,510.1,539.2,511.2,538.8,512.1z M592.5,529.5
			c-0.4,0.2-0.8,0.3-1,0.4c-0.3,0-0.5-0.1-0.8-0.5c-0.2-0.3-0.3-1-0.2-1.8l4.1-30.8l-3.8,1.3c-0.9-0.2-1.9-0.4-3-0.5
			c-1.1-0.1-2.2-0.2-3.2-0.1c-2.2,0.2-4.2,0.7-6,1.5c-1.8,0.8-3.5,1.9-5,3.2c-1.5,1.3-2.8,2.8-4,4.5c-1.2,1.7-2.1,3.4-2.9,5.2
			c-0.8,1.8-1.4,3.6-1.8,5.4c-0.4,1.8-0.6,3.5-0.6,5.2c0,2,0.2,3.8,0.5,5.4c0.4,1.6,0.9,3,1.7,4.2c0.8,1.1,1.8,2,3,2.6
			c1.2,0.6,2.7,0.8,4.5,0.7c1-0.1,2-0.3,3-0.8c1-0.4,1.9-1,2.8-1.6c0.9-0.7,1.7-1.4,2.5-2.2c0.8-0.8,1.4-1.6,2.1-2.4l-0.2,2.1
			c-0.1,1.5,0.3,2.6,1,3.2c0.8,0.6,1.8,0.8,3,0.7c0.9-0.1,1.8-0.3,2.6-0.7s1.5-0.8,2.2-1.3c0.6-0.5,1.1-1,1.6-1.4
			c0.4-0.5,0.7-0.8,0.8-1l-1-1.6C593.5,528.8,592.9,529.3,592.5,529.5z M584.9,522.9c-0.5,0.8-1.1,1.6-1.9,2.5
			c-0.7,0.9-1.5,1.7-2.4,2.5c-0.9,0.8-1.7,1.4-2.7,1.9c-0.9,0.5-1.8,0.8-2.8,0.9c-1.6,0.1-2.7-0.7-3.4-2.4c-0.7-1.7-1-4.1-1-7.1
			c0-1.3,0.1-2.6,0.3-4.1c0.2-1.4,0.6-2.9,1-4.3c0.4-1.4,1-2.8,1.7-4.2c0.7-1.3,1.5-2.5,2.5-3.6c0.9-1,2-1.9,3.2-2.6
			c1.2-0.7,2.6-1.1,4-1.2c0.8-0.1,1.5,0,2.2,0.1c0.7,0.1,1.3,0.3,1.9,0.6L584.9,522.9z M636.5,493.7c-1.5,0.1-2.9,0.5-4.1,1.2
			c-1.3,0.7-2.4,1.5-3.3,2.4c-1,0.9-1.8,1.8-2.4,2.8c-0.7,0.9-1.1,1.8-1.5,2.4l0.7-7.2l-1.5-0.6l-7.7,2.2l-0.6,2.8l3.1,1.7
			l-3.8,30.4l6.3-0.5l2.8-22.8c0.6-1.4,1.3-2.6,2.1-3.6c0.8-1,1.6-1.8,2.4-2.4c0.8-0.6,1.7-1.1,2.5-1.4c0.8-0.3,1.6-0.5,2.4-0.5
			c1.6-0.1,2.6,0,3.2,0.2l1.4-6.8c-0.2-0.2-0.4-0.2-0.8-0.3C637.2,493.7,636.9,493.7,636.5,493.7z M672.3,491.4
			c-0.7-0.1-1.5-0.1-2.4-0.1c-0.8,0-1.7,0-2.5,0.1c-1.6,0.1-3.1,0.5-4.6,1.1c-1.5,0.6-2.8,1.4-3.9,2.3c-1.1,1-2,2.1-2.7,3.4
			c-0.7,1.3-1,2.7-1,4.3c0,1.3,0.2,2.4,0.7,3.5c0.5,1.1,1,2,1.7,2.9c0.7,0.8,1.4,1.6,2.1,2.2c0.8,0.6,1.4,1.1,2,1.5
			c0.7,0.5,1.4,0.9,2,1.4c0.7,0.5,1.2,1,1.8,1.6c0.5,0.6,0.9,1.2,1.3,1.9c0.3,0.7,0.5,1.5,0.5,2.3c0,1-0.2,1.8-0.6,2.5
			c-0.4,0.6-0.9,1.1-1.5,1.5c-0.6,0.3-1.3,0.6-2,0.7c-0.7,0.1-1.4,0.2-2.1,0.3c-0.9,0.1-1.8,0.1-2.7-0.1c-0.9-0.1-1.7-0.2-2.4-0.4
			c-0.7-0.2-1.4-0.4-1.9-0.6c-0.6-0.2-1-0.4-1.3-0.7l-1.2,4.9c0.3,0.2,0.7,0.4,1.4,0.6c0.6,0.2,1.4,0.3,2.2,0.4
			c0.8,0.1,1.8,0.2,2.7,0.2c1,0,1.9,0,2.9-0.1c1.6-0.1,3.2-0.4,4.7-1c1.5-0.5,2.8-1.3,4-2.2c1.1-0.9,2.1-2,2.8-3.3
			c0.7-1.3,1-2.8,1-4.4c0-1.3-0.2-2.5-0.6-3.5c-0.4-1-1-1.9-1.6-2.8c-0.7-0.8-1.4-1.6-2.2-2.2c-0.8-0.7-1.6-1.3-2.5-1.8
			c-0.7-0.5-1.4-1-2-1.5c-0.6-0.5-1.2-1.1-1.7-1.7c-0.5-0.6-0.8-1.3-1.1-2c-0.3-0.7-0.3-1.5-0.2-2.3c0.1-0.8,0.3-1.5,0.7-2.1
			c0.4-0.6,0.8-1,1.3-1.4c0.5-0.4,1.1-0.6,1.8-0.8c0.7-0.2,1.3-0.3,2-0.3c1-0.1,1.9,0,2.7,0.1c0.8,0.1,1.5,0.3,2.2,0.5
			c0.6,0.2,1.1,0.4,1.5,0.7c0.4,0.2,0.6,0.4,0.7,0.6l1.2-5.4c-0.3-0.1-0.7-0.2-1.2-0.3C673.7,491.6,673,491.5,672.3,491.4z
			 M735.4,472l-1.5-0.7l-8.4,1.9l-0.7,2.6l3.9,1.1l-5.7,40.8c-0.1,0.4-0.1,0.8-0.1,1.3c0,0.5,0,0.8,0,1.1c0,1.5,0.3,2.6,0.9,3.2
			c0.6,0.6,1.5,0.9,2.8,0.8c0.9-0.1,1.8-0.3,2.7-0.8c0.9-0.4,1.6-1,2.3-1.5c0.7-0.6,1.2-1.1,1.7-1.6c0.5-0.5,0.8-0.9,0.9-1.2l-1-1.6
			c-0.9,0.9-1.6,1.6-2.1,1.8c-0.5,0.3-0.9,0.4-1.2,0.4c-0.3,0-0.5-0.2-0.6-0.6c-0.1-0.4-0.1-1,0-1.8L735.4,472z M781.1,515.7
			c-0.4,0.2-0.8,0.3-1,0.4c-0.3,0-0.5-0.1-0.8-0.5c-0.2-0.3-0.3-1-0.2-1.8l4.1-30.8l-3.8,1.3c-0.9-0.2-1.9-0.4-3-0.5
			c-1.1-0.1-2.2-0.2-3.2-0.1c-2.2,0.2-4.2,0.7-6,1.5c-1.8,0.8-3.5,1.9-5,3.2c-1.5,1.3-2.8,2.8-4,4.5c-1.2,1.7-2.1,3.4-2.9,5.2
			c-0.8,1.8-1.4,3.6-1.8,5.4c-0.4,1.8-0.6,3.5-0.6,5.2c0,2,0.2,3.8,0.5,5.4c0.4,1.6,0.9,3,1.7,4.2c0.8,1.1,1.8,2,3,2.6
			c1.2,0.6,2.7,0.8,4.5,0.7c1-0.1,2-0.3,3-0.8c1-0.4,1.9-1,2.8-1.6c0.9-0.7,1.7-1.4,2.5-2.2c0.8-0.8,1.4-1.6,2.1-2.4l-0.2,2.1
			c-0.1,1.5,0.3,2.6,1,3.2c0.8,0.6,1.8,0.8,3,0.7c0.9-0.1,1.8-0.3,2.6-0.7c0.8-0.4,1.5-0.8,2.2-1.3c0.6-0.5,1.1-1,1.6-1.4
			c0.4-0.5,0.7-0.8,0.8-1l-1-1.6C782,515.1,781.5,515.5,781.1,515.7z M773.5,509.2c-0.5,0.8-1.1,1.6-1.9,2.5
			c-0.7,0.9-1.5,1.7-2.4,2.5c-0.9,0.8-1.7,1.4-2.7,1.9c-0.9,0.5-1.8,0.8-2.8,0.9c-1.6,0.1-2.7-0.7-3.4-2.4c-0.7-1.7-1-4.1-1-7.1
			c0-1.3,0.1-2.6,0.3-4.1c0.2-1.4,0.6-2.9,1-4.3c0.4-1.4,1-2.8,1.7-4.2c0.7-1.3,1.5-2.5,2.5-3.6c0.9-1,2-1.9,3.2-2.6
			c1.2-0.7,2.6-1.1,4-1.2c0.8-0.1,1.5,0,2.2,0.1c0.7,0.1,1.3,0.3,1.9,0.6L773.5,509.2z M815.7,472.7l-3.1,0.2
			c-0.3,0.7-0.6,1.5-0.9,2.3c-0.3,0.8-0.7,1.6-1.1,2.4c-0.4,0.8-0.8,1.5-1.1,2.2c-0.4,0.7-0.7,1.2-1.1,1.6l-3.9,1.8l-0.6,2.8
			l3.8-0.3l-2.8,22.7c-0.1,0.8-0.2,1.5-0.3,2c-0.1,0.5-0.1,0.9-0.1,1.2c0,0.3,0,0.6,0,0.7c0,0.2,0,0.3,0,0.4c0,1.1,0.2,1.9,0.5,2.6
			c0.3,0.7,0.7,1.2,1.2,1.6c0.5,0.4,1.1,0.7,1.8,0.8c0.7,0.1,1.4,0.2,2.2,0.1c0.9-0.1,1.9-0.3,2.9-0.7c1-0.4,2-0.8,2.9-1.4
			c0.9-0.5,1.7-1.1,2.5-1.7c0.7-0.6,1.3-1.1,1.7-1.6l-0.6-2.4c-0.3,0.3-0.8,0.6-1.3,0.9c-0.5,0.3-1,0.7-1.6,1
			c-0.6,0.3-1.1,0.6-1.7,0.8c-0.5,0.2-1,0.3-1.4,0.4c-0.5,0-1,0-1.3,0c-0.3-0.1-0.6-0.2-0.8-0.4c-0.2-0.2-0.3-0.5-0.4-0.9
			c-0.1-0.4-0.1-0.8-0.1-1.4c0-0.6,0-1.4,0.1-2.3s0.2-2,0.4-3.2l2.6-19.8l8.1-0.6l0.6-4.4l-8.1,0.6L815.7,472.7z M863.7,479.3
			c-0.7-0.7-1.7-1.1-2.8-1.5c-1.1-0.3-2.4-0.4-4-0.3c-1.7,0.1-3.4,0.5-5,1.2c-1.6,0.7-3,1.6-4.4,2.8c-1.4,1.1-2.6,2.5-3.7,4
			c-1.1,1.5-2.1,3.1-2.9,4.9c-0.8,1.8-1.4,3.6-1.9,5.5c-0.4,1.9-0.7,3.9-0.8,5.9c0,1.8,0.2,3.5,0.6,5.2c0.5,1.7,1.2,3.1,2.2,4.3
			c1,1.2,2.3,2.2,3.9,2.9c1.6,0.7,3.5,0.9,5.8,0.8c1.5-0.1,3-0.4,4.4-1c1.4-0.5,2.6-1.2,3.7-1.9c1.1-0.7,2.1-1.5,2.9-2.3
			c0.8-0.8,1.5-1.5,1.9-2.2l-1.5-2.5c-1.8,1.8-3.6,3.1-5.4,3.9c-1.8,0.8-3.6,1.3-5.2,1.4c-1.4,0.1-2.6-0.2-3.5-0.8
			c-0.9-0.7-1.6-1.5-2.1-2.6c-0.5-1-0.9-2.2-1-3.4c-0.2-1.2-0.2-2.3-0.1-3.4c1-0.1,2.2-0.4,3.6-0.7c1.4-0.4,2.9-0.9,4.4-1.5
			c1.5-0.6,3.1-1.4,4.6-2.2c1.5-0.9,2.9-1.9,4.1-3c1.2-1.1,2.2-2.4,2.9-3.8c0.7-1.4,1.1-2.9,1.1-4.5c0-1.1-0.2-2.1-0.5-3
			C865,480.8,864.4,480,863.7,479.3z M858.6,488.8c-0.5,0.9-1.1,1.8-1.8,2.6c-0.8,0.8-1.6,1.5-2.6,2.2c-1,0.6-2,1.2-3,1.7
			c-1,0.5-2.1,0.9-3.1,1.2c-1,0.3-2,0.5-2.8,0.6c0.1-0.9,0.3-1.9,0.5-3c0.2-1.1,0.6-2.2,1-3.3c0.4-1.1,0.9-2.2,1.4-3.3
			c0.6-1.1,1.2-2.1,1.9-2.9c0.7-0.9,1.5-1.6,2.4-2.1c0.9-0.6,1.9-0.9,2.9-0.9c1.1-0.1,2.1,0.2,2.8,0.9c0.7,0.7,1.1,1.8,1.1,3.5
			C859.3,486.8,859.1,487.8,858.6,488.8z M907.8,474c-0.4,0-0.8,0-1.1,0c-1.5,0.1-2.9,0.5-4.1,1.2c-1.3,0.7-2.4,1.5-3.3,2.4
			c-1,0.9-1.8,1.8-2.4,2.8c-0.7,0.9-1.1,1.8-1.5,2.4l0.7-7.2l-1.5-0.6l-7.7,2.2l-0.6,2.8l3.1,1.7l-3.8,30.4l6.3-0.5l2.8-22.8
			c0.6-1.4,1.3-2.6,2.1-3.6c0.8-1,1.6-1.8,2.4-2.4c0.8-0.6,1.7-1.1,2.5-1.4c0.8-0.3,1.6-0.5,2.4-0.5c1.6-0.1,2.6,0,3.2,0.2l1.4-6.8
			C908.5,474.1,908.2,474,907.8,474z"/>
	</g>
</g>
</svg>
