<?xml version="1.0" encoding="utf-8"?>
<!-- Generator: Adobe Illustrator 19.2.1, SVG Export Plug-In . SVG Version: 6.00 Build 0)  -->
<svg version="1.1" id="Layer_1" xmlns="http://www.w3.org/2000/svg" xmlns:xlink="http://www.w3.org/1999/xlink" x="0px" y="0px"
	 viewBox="0 0 71.1 103.3" style="enable-background:new 0 0 71.1 103.3;" xml:space="preserve">
<path d="M36.8,102.7l33.9-33.9c0.5-0.5,0.5-1.2,0-1.7l-4.5-4.5c-0.5-0.5-1.2-0.5-1.7,0L39.9,87.3V1.2c0-0.7-0.5-1.2-1.2-1.2l-6.4,0
	c-0.7,0-1.2,0.5-1.2,1.2v86.2L6.5,62.6c-0.5-0.5-1.2-0.5-1.7,0l-4.5,4.5c-0.5,0.5-0.5,1.2,0,1.7l33.9,33.9
	C35,103.4,36.1,103.4,36.8,102.7z"/>
</svg>
