<?xml version="1.0" encoding="utf-8"?>
<!-- Generator: Adobe Illustrator 19.2.1, SVG Export Plug-In . SVG Version: 6.00 Build 0)  -->
<svg version="1.1" id="Layer_1" xmlns="http://www.w3.org/2000/svg" xmlns:xlink="http://www.w3.org/1999/xlink" x="0px" y="0px"
	 viewBox="0 0 20 20" style="enable-background:new 0 0 20 20;" xml:space="preserve">
<style type="text/css">
	.st0{fill:#252525;}
</style>
<path class="st0" d="M17,3h-1v1c0,0.5-0.4,1-1,1H14c-0.5,0-1-0.4-1-1V3H7v1c0,0.5-0.4,1-1,1H5C4.4,5,4,4.6,4,4V3H3C1.9,3,1,3.9,1,5
	v12c0,1.1,0.9,2,2,2h14c1.1,0,2-0.9,2-2V5C19,3.9,18.1,3,17,3z M16.3,17H3.7C3.3,17,3,16.7,3,16.3V9.7C3,9.3,3.3,9,3.7,9h12.6
	C16.7,9,17,9.3,17,9.7v6.6C17,16.7,16.7,17,16.3,17z"/>
<g>
	<path class="st0" d="M5.9,1H5.1C4.8,1,4.5,1.3,4.5,1.6v2.2c0,0.4,0.3,0.6,0.6,0.6h0.7c0.4,0,0.6-0.3,0.6-0.6V1.6
		C6.5,1.3,6.2,1,5.9,1z"/>
	<path class="st0" d="M14.9,1h-0.7c-0.4,0-0.6,0.3-0.6,0.6v2.2c0,0.4,0.3,0.6,0.6,0.6h0.7c0.4,0,0.6-0.3,0.6-0.6V1.6
		C15.5,1.3,15.2,1,14.9,1z"/>
</g>
<path class="st0" d="M14.6,12.2H5.4c-0.3,0-0.6-0.3-0.6-0.6v0c0-0.3,0.3-0.6,0.6-0.6h9.3c0.3,0,0.6,0.3,0.6,0.6v0
	C15.2,11.9,15,12.2,14.6,12.2z"/>
<path class="st0" d="M14.6,14.9H5.4c-0.3,0-0.6-0.3-0.6-0.6v0c0-0.3,0.3-0.6,0.6-0.6h9.3c0.3,0,0.6,0.3,0.6,0.6v0
	C15.2,14.7,15,14.9,14.6,14.9z"/>
</svg>
