<?xml version="1.0" encoding="utf-8"?>
<!-- Generator: Adobe Illustrator 19.2.1, SVG Export Plug-In . SVG Version: 6.00 Build 0)  -->
<svg version="1.1" id="Layer_1" xmlns="http://www.w3.org/2000/svg" xmlns:xlink="http://www.w3.org/1999/xlink" x="0px" y="0px"
	 viewBox="0 0 201.3 161.1" style="enable-background:new 0 0 201.3 161.1;" xml:space="preserve">
<style type="text/css">
	.st0{fill:#29D6D4;}
</style>
<path class="st0" d="M100.7,60.4c-16.7,0-30.2,13.5-30.2,30.2s13.5,30.2,30.2,30.2c16.7,0,30.2-13.5,30.2-30.2
	S117.3,60.4,100.7,60.4z M181.2,30.2H157c-3.3,0-6.9-2.6-7.9-5.7l-6.3-18.7c-1.1-3.2-4.6-5.7-8-5.7H66.4c-3.3,0-6.9,2.6-7.9,5.7
	l-6.3,18.7c-1,3.2-4.6,5.7-7.9,5.7H20.1C9.1,30.2,0,39.3,0,50.3v90.6c0,11.1,9.1,20.1,20.1,20.1h161.1c11.1,0,20.1-9.1,20.1-20.1
	V50.3C201.3,39.3,192.3,30.2,181.2,30.2z M100.7,140.9c-27.8,0-50.3-22.5-50.3-50.3s22.5-50.3,50.3-50.3c27.8,0,50.3,22.5,50.3,50.3
	S128.5,140.9,100.7,140.9z M176.2,62.4c-3.9,0-7-3.2-7-7.1c0-3.9,3.2-7,7-7c3.9,0,7,3.2,7,7C183.2,59.3,180.1,62.4,176.2,62.4z"/>
</svg>
