<?xml version="1.0" encoding="utf-8"?>
<!-- Generator: Adobe Illustrator 19.2.1, SVG Export Plug-In . SVG Version: 6.00 Build 0)  -->
<svg version="1.1" xmlns="http://www.w3.org/2000/svg" xmlns:xlink="http://www.w3.org/1999/xlink" x="0px" y="0px"
	 viewBox="0 0 181.9 111.7" style="enable-background:new 0 0 181.9 111.7;" xml:space="preserve">
<style type="text/css">
	.st0{fill:#EFF2F4;}
	.st1{fill-rule:evenodd;clip-rule:evenodd;fill:#6E6E6E;}
</style>
<g id="Layer_1">
	<g>
		<g>
			<path class="st0" d="M14,105.5c-0.8,1.2-2,1.8-3.6,1.8c-1.6,0-2.8-0.7-3.7-2.1c-0.9-1.4-1.3-3.9-1.3-7.7V76.4
				c0-3.8,0.4-6.4,1.3-7.9c0.9-1.4,2-2.1,3.5-2.1c1.5,0,2.6,0.6,3.3,1.7c0.8,1.1,1.3,3.1,1.5,6l5-1.2c-0.4-4.1-1.4-6.9-3-8.5
				c-1.6-1.6-4-2.4-7-2.4S4.6,63,2.7,65.3C0.9,67.5,0,71.6,0,77.5v18.6c0,6,0.9,10,2.7,12.3c1.8,2.2,4.3,3.3,7.4,3.3
				c3.1,0,5.5-0.9,7.1-2.8c1.7-1.8,2.7-5.1,3.1-9.7l-4.8-0.6C15.3,102,14.8,104.3,14,105.5z M36.2,61.9c-3.4,0-6.1,1.1-7.9,3.3
				c-1.8,2.2-2.8,6.2-2.8,12v19.2c0,5.8,0.9,9.8,2.8,12c1.8,2.2,4.5,3.3,7.9,3.3c3.4,0,6.1-1.1,7.9-3.3c1.8-2.2,2.8-6.2,2.8-12V77.2
				c0-5.8-0.9-9.8-2.8-12C42.3,63,39.7,61.9,36.2,61.9z M41.5,97.4c0,6.5-1.8,9.8-5.3,9.8c-1.7,0-3-0.7-3.9-2.1
				c-0.9-1.4-1.4-4-1.4-7.7V76.2c0-3.7,0.5-6.3,1.4-7.7c0.9-1.4,2.2-2.1,3.9-2.1c3.5,0,5.3,3.3,5.3,9.8V97.4z M69.9,97.4
				c0,3.7-0.5,6.2-1.4,7.7c-0.9,1.4-2.2,2.1-3.8,2.1c-1.6,0-2.9-0.7-3.8-2.1c-0.9-1.4-1.4-4-1.4-7.7V62.9h-5.4v33.5
				c0,5.8,0.9,9.8,2.8,12c1.8,2.2,4.5,3.3,7.8,3.3c3.4,0,6-1.1,7.8-3.3c1.8-2.2,2.8-6.2,2.8-12V62.9h-5.4V97.4z M102.5,78v-0.3
				c0-5.5-0.9-9.4-2.8-11.5c-1.9-2.1-4.5-3.2-7.9-3.2h-8.5v47.7h5.5V92.4h3.3l5.3,18.3h5.6l-5.7-19.5
				C100.8,89.3,102.5,84.9,102.5,78z M97.1,78.7c0,6.3-1.8,9.4-5.3,9.4h-3V67.3h3c1.6,0,2.9,0.7,3.9,2c0.9,1.4,1.4,3.8,1.4,7.3V78.7
				z M115.3,62.9l-8.7,47.7h5.5l2-12.4h9.6l2.1,12.4h5.5l-8.7-47.7H115.3z M114.8,93.9l4.1-24.1l4,24.1H114.8z M145.7,89.7h5.6v8.3
				c-0.1,6.1-1.9,9.2-5.3,9.2c-1.5,0-2.7-0.7-3.6-2.1c-0.8-1.4-1.3-4-1.3-7.7V76.4c0-3.8,0.4-6.4,1.3-7.9c0.9-1.4,2-2.1,3.5-2.1
				c1.5,0,2.6,0.6,3.3,1.7c0.8,1.1,1.3,3.1,1.5,6l5-1.2c-0.4-4.1-1.4-6.9-3-8.5c-1.6-1.6-4-2.4-7-2.4s-5.5,1.1-7.3,3.3
				c-1.8,2.2-2.7,6.3-2.7,12.3v18.9c0,5.8,0.8,9.8,2.4,12c1.6,2.2,3.8,3.3,6.7,3.3c3.6,0,6-1.8,7.4-5.5l1,4.4h3.3V85.4h-10.7V89.7z
				 M170,106.3V89.1h10.7v-4.4H170V67.3h11.7v-4.4h-17.1v47.7h17.3v-4.4H170z M19.7,33.2c-0.3,0.1-0.5,0.2-0.7,0.2
				c-0.2,0-0.4-0.1-0.5-0.4c-0.2-0.3-0.2-0.7-0.1-1.3l2.8-21.1l-2.6,0.7c-0.6-0.2-1.3-0.4-2.1-0.5c-0.8-0.2-1.5-0.2-2.3-0.2
				c-1.5,0-2.9,0.2-4.2,0.7c-1.3,0.5-2.4,1.2-3.5,2c-1,0.8-2,1.8-2.8,2.9c-0.8,1.1-1.5,2.3-2,3.5c-0.6,1.2-1,2.4-1.3,3.7
				c-0.3,1.2-0.4,2.4-0.4,3.5c0,1.4,0.1,2.6,0.4,3.8c0.2,1.1,0.6,2.1,1.2,3c0.5,0.8,1.2,1.5,2.1,2c0.9,0.5,1.9,0.7,3.1,0.7
				c0.7,0,1.4-0.1,2.1-0.4c0.7-0.3,1.3-0.6,1.9-1c0.6-0.4,1.2-0.9,1.7-1.4c0.5-0.5,1-1,1.4-1.6l-0.2,1.4c-0.1,1.1,0.2,1.8,0.7,2.3
				c0.5,0.4,1.2,0.7,2.1,0.7c0.6,0,1.2-0.1,1.8-0.3c0.6-0.2,1.1-0.5,1.5-0.8c0.4-0.3,0.8-0.6,1.1-0.9c0.3-0.3,0.5-0.5,0.5-0.7
				l-0.7-1.2C20.4,32.8,20,33,19.7,33.2z M14.5,28.2c-0.4,0.5-0.8,1-1.3,1.6c-0.5,0.6-1.1,1.1-1.7,1.6c-0.6,0.5-1.2,0.9-1.8,1.2
				C9,33,8.4,33.1,7.7,33.1c-1.1,0-1.9-0.6-2.4-1.8c-0.5-1.2-0.7-2.9-0.7-5c0-0.9,0.1-1.8,0.2-2.8c0.2-1,0.4-2,0.7-3
				c0.3-1,0.7-1.9,1.2-2.8c0.5-0.9,1.1-1.7,1.7-2.3c0.7-0.7,1.4-1.2,2.2-1.6c0.8-0.4,1.8-0.6,2.8-0.6c0.5,0,1,0.1,1.5,0.2
				c0.5,0.1,0.9,0.3,1.3,0.5L14.5,28.2z M58.4,37.3l-4.8-0.6c-0.3,3.4-0.8,5.7-1.6,6.9c-0.8,1.2-2,1.8-3.6,1.8
				c-1.6,0-2.8-0.7-3.7-2.1c-0.9-1.4-1.3-3.9-1.3-7.7V14.5c0-3.8,0.4-6.4,1.3-7.9c0.9-1.4,2-2.1,3.5-2.1c1.5,0,2.6,0.6,3.3,1.7
				c0.8,1.1,1.3,3.1,1.5,6l5-1.2c-0.4-4.1-1.4-6.9-3-8.5c-1.6-1.6-4-2.4-7-2.4s-5.5,1.1-7.3,3.3C38.9,5.6,38,9.7,38,15.6v18.6
				c0,6,0.9,10,2.7,12.3c1.8,2.2,4.3,3.3,7.4,3.3c3.1,0,5.5-0.9,7.1-2.8C56.9,45.2,58,41.9,58.4,37.3z M77.3,1h-7.2l-8.7,47.7h5.5
				l2-12.4h9.6l2.1,12.4h5.5L77.3,1z M69.6,32l4.1-24.1l4,24.1H69.6z M107.5,44.4H96.9V1h-5.5v47.7h16.1V44.4z M128.9,44.4h-10.6V1
				h-5.5v47.7h16.1V44.4z M143.2,29.4c-0.1,0.6-0.1,1-0.2,1.4c0,0.4-0.1,0.6-0.1,0.9c0,0.2,0,0.4,0,0.5c0,0.1,0,0.2,0,0.2
				c0,0.7,0.1,1.4,0.3,1.9c0.2,0.5,0.5,0.9,0.9,1.2c0.4,0.3,0.8,0.5,1.3,0.6c0.5,0.1,1,0.2,1.5,0.2c0.6,0,1.3-0.1,2-0.3
				c0.7-0.2,1.4-0.5,2-0.8c0.6-0.3,1.2-0.7,1.7-1c0.5-0.4,0.9-0.7,1.2-1l-0.4-1.7c-0.2,0.2-0.5,0.4-0.9,0.6
				c-0.4,0.2-0.7,0.4-1.1,0.6c-0.4,0.2-0.8,0.3-1.2,0.5c-0.4,0.1-0.7,0.2-1,0.2c-0.4,0-0.7,0-0.9-0.1c-0.2-0.1-0.4-0.2-0.6-0.3
				c-0.1-0.2-0.2-0.4-0.3-0.6c-0.1-0.3-0.1-0.6-0.1-1c0-0.4,0-1,0.1-1.6c0.1-0.7,0.2-1.4,0.3-2.2l1.8-13.6h5.6l0.4-3H150l0.7-5.7
				h-2.1c-0.2,0.5-0.4,1-0.6,1.6c-0.2,0.6-0.5,1.1-0.8,1.6c-0.3,0.5-0.5,1-0.8,1.5c-0.3,0.4-0.5,0.8-0.8,1.1l-2.7,1l-0.4,1.9h2.6
				L143.2,29.4z M169.7,35.6c1.1-0.4,2.1-1,3-1.7c0.9-0.7,1.8-1.6,2.5-2.6c0.7-1,1.4-2.1,1.9-3.2c0.5-1.2,0.9-2.4,1.2-3.7
				c0.3-1.3,0.4-2.6,0.4-3.9c0-1.6-0.2-3-0.6-4.2c-0.4-1.2-1-2.3-1.7-3.1c-0.7-0.9-1.6-1.5-2.7-2c-1.1-0.4-2.3-0.7-3.7-0.7
				c-1.2,0-2.4,0.2-3.5,0.6c-1.1,0.4-2.1,1-3,1.7c-0.9,0.7-1.8,1.6-2.5,2.6c-0.7,1-1.4,2.1-1.9,3.2c-0.5,1.2-0.9,2.4-1.2,3.7
				c-0.3,1.3-0.4,2.6-0.4,3.9c0,1.6,0.2,3,0.6,4.2s0.9,2.3,1.7,3.1c0.7,0.8,1.6,1.5,2.7,1.9c1.1,0.4,2.3,0.7,3.7,0.7
				C167.5,36.3,168.6,36,169.7,35.6z M163.5,31.7c-0.8-1.3-1.2-3.1-1.2-5.4c0-0.9,0-1.9,0.1-2.9c0.1-1,0.3-2,0.5-3
				c0.2-1,0.6-1.9,0.9-2.7c0.4-0.9,0.8-1.6,1.3-2.3c0.5-0.7,1.1-1.2,1.8-1.6c0.7-0.4,1.4-0.6,2.2-0.6c1.6,0,2.8,0.6,3.6,1.9
				c0.8,1.3,1.2,3.1,1.3,5.4c0,0.9,0,1.9-0.1,2.9c-0.1,1-0.3,2-0.5,3c-0.2,1-0.6,1.9-0.9,2.7c-0.4,0.9-0.8,1.6-1.4,2.3
				c-0.5,0.7-1.1,1.2-1.8,1.6c-0.7,0.4-1.4,0.6-2.2,0.6C165.4,33.6,164.3,33,163.5,31.7z"/>
		</g>
	</g>
	<g>
		<g>
			<path class="st1" d="M141.6,44.3v4.3h39.6v-4.3H141.6z M0.4,48.6h23.1v-4.3H0.4V48.6z"/>
		</g>
	</g>
</g>
<g id="Layer_2">
</g>
</svg>
